<svg xmlns="http://www.w3.org/2000/svg" width="240" height="300" viewBox="0 0 240 300">
  <rect width="240" height="300" fill="#FFFFFF" rx="4" />
  <line x1="26" y1="22" x2="232" y2="22" stroke="#333333" stroke-width="3" stroke-linecap="round" />
  <line x1="26" y1="22.0" x2="232" y2="22.0" stroke="#888888" stroke-width="0.8" />
  <line x1="26" y1="89.5" x2="232" y2="89.5" stroke="#888888" stroke-width="0.8" />
  <line x1="26" y1="157.0" x2="232" y2="157.0" stroke="#888888" stroke-width="0.8" />
  <line x1="26" y1="224.5" x2="232" y2="224.5" stroke="#888888" stroke-width="0.8" />
  <line x1="26" y1="292.0" x2="232" y2="292.0" stroke="#888888" stroke-width="0.8" />
  <line x1="26.0" y1="22" x2="26.0" y2="292" stroke="#888888" stroke-width="0.8" />
  <line x1="60.333333333333336" y1="22" x2="60.333333333333336" y2="292" stroke="#888888" stroke-width="0.8" />
  <line x1="94.66666666666667" y1="22" x2="94.66666666666667" y2="292" stroke="#888888" stroke-width="0.8" />
  <line x1="129.0" y1="22" x2="129.0" y2="292" stroke="#888888" stroke-width="0.8" />
  <line x1="163.33333333333334" y1="22" x2="163.33333333333334" y2="292" stroke="#888888" stroke-width="0.8" />
  <line x1="197.66666666666669" y1="22" x2="197.66666666666669" y2="292" stroke="#888888" stroke-width="0.8" />
  <line x1="232.0" y1="22" x2="232.0" y2="292" stroke="#888888" stroke-width="0.8" />
  <circle cx="26.0" cy="190.75" r="8" fill="#D32F2F" />
  <text x="26.0" y="193.75" text-anchor="middle" font-family="Helvetica, Arial, sans-serif" font-size="8" font-weight="bold" fill="#FFFFFF">1</text>
  <circle cx="60.333333333333336" cy="55.75" r="8" fill="#00897B" />
  <text x="60.333333333333336" y="58.75" text-anchor="middle" font-family="Helvetica, Arial, sans-serif" font-size="8" font-weight="bold" fill="#FFFFFF">4</text>
  <circle cx="94.66666666666667" cy="55.75" r="8" fill="#F57C00" />
  <text x="94.66666666666667" y="58.75" text-anchor="middle" font-family="Helvetica, Arial, sans-serif" font-size="8" font-weight="bold" fill="#FFFFFF">b7</text>
  <circle cx="129.0" cy="190.75" r="8" fill="#00897B" />
  <text x="129.0" y="193.75" text-anchor="middle" font-family="Helvetica, Arial, sans-serif" font-size="8" font-weight="bold" fill="#FFFFFF">4</text>
  <circle cx="163.33333333333334" cy="123.25" r="8" fill="#FBC02D" />
  <text x="163.33333333333334" y="126.25" text-anchor="middle" font-family="Helvetica, Arial, sans-serif" font-size="8" font-weight="bold" fill="#FFFFFF">6</text>
  <circle cx="197.66666666666669" cy="55.75" r="8" fill="#D32F2F" />
  <text x="197.66666666666669" y="58.75" text-anchor="middle" font-family="Helvetica, Arial, sans-serif" font-size="8" font-weight="bold" fill="#FFFFFF">1</text>
  <circle cx="232.0" cy="55.75" r="8" fill="#00897B" />
  <text x="232.0" y="58.75" text-anchor="middle" font-family="Helvetica, Arial, sans-serif" font-size="8" font-weight="bold" fill="#FFFFFF">4</text>
</svg>