<svg xmlns="http://www.w3.org/2000/svg" width="240" height="300" viewBox="0 0 240 300">
  <rect width="240" height="300" fill="#FFFFFF" rx="4" />
  <line x1="26" y1="22.0" x2="232" y2="22.0" stroke="#888888" stroke-width="0.8" />
  <line x1="26" y1="89.5" x2="232" y2="89.5" stroke="#888888" stroke-width="0.8" />
  <line x1="26" y1="157.0" x2="232" y2="157.0" stroke="#888888" stroke-width="0.8" />
  <line x1="26" y1="224.5" x2="232" y2="224.5" stroke="#888888" stroke-width="0.8" />
  <line x1="26" y1="292.0" x2="232" y2="292.0" stroke="#888888" stroke-width="0.8" />
  <line x1="26.0" y1="22" x2="26.0" y2="292" stroke="#888888" stroke-width="0.8" />
  <line x1="67.2" y1="22" x2="67.2" y2="292" stroke="#888888" stroke-width="0.8" />
  <line x1="108.4" y1="22" x2="108.4" y2="292" stroke="#888888" stroke-width="0.8" />
  <line x1="149.60000000000002" y1="22" x2="149.60000000000002" y2="292" stroke="#888888" stroke-width="0.8" />
  <line x1="190.8" y1="22" x2="190.8" y2="292" stroke="#888888" stroke-width="0.8" />
  <line x1="232.0" y1="22" x2="232.0" y2="292" stroke="#888888" stroke-width="0.8" />
  <text x="22" y="65.875" text-anchor="end" font-family="Helvetica, Arial, sans-serif" font-size="9" fill="#333333">2</text>
  <circle cx="67.2" cy="123.25" r="8" fill="#D32F2F" />
  <text x="67.2" y="126.25" text-anchor="middle" font-family="Helvetica, Arial, sans-serif" font-size="8" font-weight="bold" fill="#FFFFFF">1</text>
  <circle cx="108.4" cy="55.75" r="8" fill="#1976D2" />
  <text x="108.4" y="58.75" text-anchor="middle" font-family="Helvetica, Arial, sans-serif" font-size="8" font-weight="bold" fill="#FFFFFF">3</text>
  <circle cx="149.60000000000002" cy="123.25" r="8" fill="#F57C00" />
  <text x="149.60000000000002" y="126.25" text-anchor="middle" font-family="Helvetica, Arial, sans-serif" font-size="8" font-weight="bold" fill="#FFFFFF">b7</text>
  <text x="232.0" y="19" text-anchor="middle" font-family="Helvetica, Arial, sans-serif" font-size="10" fill="#666666">×</text>
  <text x="190.8" y="19" text-anchor="middle" font-family="Helvetica, Arial, sans-serif" font-size="10" fill="#666666">×</text>
  <text x="26.0" y="19" text-anchor="middle" font-family="Helvetica, Arial, sans-serif" font-size="10" fill="#666666">×</text>
</svg>